<?xml version="1.0" encoding="utf-8"?>
<!-- Generator: Adobe Illustrator 22.1.0, SVG Export Plug-In . SVG Version: 6.00 Build 0)  -->
<svg version="1.1" id="Layer_1" xmlns="http://www.w3.org/2000/svg" xmlns:xlink="http://www.w3.org/1999/xlink" x="0px" y="0px"
	 viewBox="0 0 512 512" style="enable-background:new 0 0 512 512;" xml:space="preserve" fill="#3B5BFF">
<g>
	<path d="M294.7,396.6h21.1c5.8,0,10.5-4.7,10.5-10.5V196.2c0-5.8-4.7-10.5-10.5-10.5h-21.1c-5.8,0-10.5,4.7-10.5,10.5v189.8
		C284.1,391.9,288.8,396.6,294.7,396.6z M438.8,101.3h-72.4l-29.9-49.8C328.9,38.8,315.1,31,300.3,31h-88.6
		c-14.8,0-28.6,7.8-36.2,20.5l-29.9,49.8H73.2c-7.8,0-14.1,6.3-14.1,14.1v14.1c0,7.8,6.3,14.1,14.1,14.1h14.1v295.3
		c0,23.3,18.9,42.2,42.2,42.2l0,0h253.1c23.3,0,42.2-18.9,42.2-42.2l0,0V143.5h14.1c7.8,0,14.1-6.3,14.1-14.1v-14.1
		C452.9,107.6,446.6,101.3,438.8,101.3z M210.2,75.7c1-1.6,2.7-2.6,4.5-2.6h82.6c1.9,0,3.6,1,4.5,2.6l15.3,25.6H194.8L210.2,75.7z
		 M382.6,438.8H129.4V143.5h253.1V438.8z M196.2,396.6h21.1c5.8,0,10.5-4.7,10.5-10.5V196.2c0-5.8-4.7-10.5-10.5-10.5h-21.1
		c-5.8,0-10.5,4.7-10.5,10.5v189.8C185.7,391.9,190.4,396.6,196.2,396.6z"/>
</g>
</svg>
