<?xml version="1.0" encoding="utf-8"?>
<!-- Generator: Adobe Illustrator 26.3.1, SVG Export Plug-In . SVG Version: 6.00 Build 0)  -->
<svg version="1.1" id="Sensor_info" xmlns="http://www.w3.org/2000/svg" xmlns:xlink="http://www.w3.org/1999/xlink" x="0px"
	 y="0px" viewBox="0 0 32 32" style="enable-background:new 0 0 32 32;" xml:space="preserve">
<style type="text/css">
	.st0{fill:none;}
	.st1{fill:#001EB3;}
	.st2{fill:#9AA2CC;}
</style>
<rect id="svgEditorBackground" class="st0" width="32" height="32"/>
<g id="logo">
	<rect id="Rectangle_13" class="st0" width="32" height="32"/>
	<g id="trash-alt-1" transform="translate(11.705 6.172)">
		<path id="Path_201" class="st1" d="M15.5,0.2H11L9.2-2.9C8.7-3.6,7.9-4.1,7-4.1H1.6c-0.9,0-1.8,0.5-2.2,1.3l-1.8,3.1h-4.4
			c-0.5,0-0.9,0.4-0.9,0.9c0,0,0,0,0,0v0.9c0,0.5,0.4,0.9,0.9,0.9c0,0,0,0,0,0h0.9v18.1c0,1.4,1.2,2.6,2.6,2.6H12
			c1.4,0,2.6-1.2,2.6-2.6l0,0V2.8h0.9c0.5,0,0.9-0.4,0.9-0.9c0,0,0,0,0,0V1.1C16.3,0.6,16,0.2,15.5,0.2z M1.5-1.4
			c0.1-0.1,0.2-0.2,0.3-0.2h5.1c0.1,0,0.2,0.1,0.3,0.2L8,0.2H0.5L1.5-1.4z M12,20.9H-3.5V2.8H12L12,20.9L12,20.9z"/>
	</g>
</g>
<rect x="8.2" y="9" class="st2" width="15.5" height="18.1"/>
</svg>
