<svg id="Sensor_info" data-name="Sensor info" xmlns="http://www.w3.org/2000/svg" width="96" height="96" viewBox="0 0 96 96">
  <g id="logo">
    <rect id="Rectangle_13" data-name="Rectangle 13" width="96" height="96" fill="none"/>
    <g id="trash-alt-1" transform="translate(11.705 6.172)">
      <path id="Path_201" data-name="Path 201" d="M128.959,43.934h-13.32l-5.5-9.162A7.774,7.774,0,0,0,103.477,31h-16.3a7.774,7.774,0,0,0-6.66,3.772l-5.5,9.162H61.694A2.591,2.591,0,0,0,59.1,46.528v2.594a2.591,2.591,0,0,0,2.594,2.594h2.594v54.33a7.766,7.766,0,0,0,7.764,7.764h46.566a7.766,7.766,0,0,0,7.764-7.764h0V51.7h2.594a2.591,2.591,0,0,0,2.594-2.594V46.51A2.615,2.615,0,0,0,128.959,43.934ZM86.9,39.224a.989.989,0,0,1,.828-.478h15.2a.943.943,0,0,1,.828.478l2.815,4.71h-22.5Zm31.719,66.8H72.034V51.7H118.6v54.33Z" transform="translate(-59.1 -31)" fill="#001eb3"/>
    </g>
  </g>
</svg>
